<svg xmlns="http://www.w3.org/2000/svg" width="600" height="400" viewBox="0 0 600 400">
  <defs><linearGradient id="bg3" x1="0" y1="0" x2="0" y2="1"><stop offset="0%" stop-color="#fdf3e7"/><stop offset="100%" stop-color="#e8d5c0"/></linearGradient></defs>
  <rect width="600" height="400" fill="url(#bg3)"/>
  <g transform="translate(300,200)">
    <path d="M-120 40 Q-100 -80 -30 -60 Q0 0 -30 30 Z" fill="#d4a017" stroke="#c99a6b" stroke-width="2"/>
    <path d="M-30 30 Q0 0 30 -60 Q100 -80 120 40 Z" fill="#e8b830" stroke="#c99a6b" stroke-width="2"/>
    <path d="M-75 15 Q-50 -20 -20 -10 Q-10 10 -30 25 Z" fill="#d4a017"/>
    <path d="M20 -10 Q50 -20 75 15 Q60 25 30 25 Z" fill="#c99a6b"/>
    <path d="M-120 40 Q-80 50 -30 30 Q0 50 30 30 Q80 50 120 40 Q80 60 30 45 Q0 60 -30 45 Q-80 60 -120 40Z" fill="#d4a017" opacity="0.6"/>
  </g>
  <text x="300" y="340" text-anchor="middle" fill="rgba(92,58,33,0.4)" font-family="Georgia,serif" font-size="18">Croissants Artesanales</text>
</svg>
