<svg xmlns="http://www.w3.org/2000/svg" width="600" height="400" viewBox="0 0 600 400">
  <defs><linearGradient id="bg5" x1="0" y1="0" x2="0" y2="1"><stop offset="0%" stop-color="#f4c2c2"/><stop offset="100%" stop-color="#fdf3e7"/></linearGradient></defs>
  <rect width="600" height="400" fill="url(#bg5)"/>
  <g transform="translate(300,200)">
    <path d="M-30 10 L-25 60 L25 60 L30 10Z" fill="#d4a017"/>
    <path d="M-32 10 L-28 8 L-20 12 L-15 6 L0 12 L15 6 L20 12 L28 8 L32 10 L30 18 L-30 18Z" fill="#c99a6b"/>
    <ellipse cx="0" cy="0" rx="35" ry="25" fill="#f4c2c2"/>
    <ellipse cx="0" cy="-3" rx="30" ry="20" fill="#fce4e4"/>
    <rect x="-25" y="55" width="50" height="12" rx="2" fill="#c99a6b"/>
    <circle cx="-10" cy="-5" r="4" fill="#ff9999"/>
    <circle cx="8" cy="-2" r="3" fill="#ff9999"/>
    <circle cx="0" cy="-10" r="5" fill="#ffcc66"/>
    <circle cx="-15" cy="-12" r="4" fill="#ff9999"/>
    <circle cx="12" cy="-12" r="3" fill="#ffcc66"/>
  </g>
  <text x="300" y="350" text-anchor="middle" fill="rgba(92,58,33,0.4)" font-family="Georgia,serif" font-size="18">Cupcakes Decorados</text>
</svg>
