<svg xmlns="http://www.w3.org/2000/svg" width="600" height="400" viewBox="0 0 600 400">
  <defs><linearGradient id="bg6" x1="0" y1="0" x2="0" y2="1"><stop offset="0%" stop-color="#e8d5c0"/><stop offset="100%" stop-color="#fdf3e7"/></linearGradient></defs>
  <rect width="600" height="400" fill="url(#bg6)"/>
  <g transform="translate(300,200)">
    <ellipse cx="0" cy="20" rx="100" ry="30" fill="#c99a6b"/>
    <ellipse cx="0" cy="0" rx="100" ry="55" fill="#d4a017"/>
    <ellipse cx="0" cy="-5" rx="85" ry="45" fill="#e8b830"/>
    <path d="M-60 10 Q-40 -30 0 -40 Q40 -30 60 10" fill="none" stroke="#c99a6b" stroke-width="1.5" opacity="0.5"/>
    <path d="M-40 20 Q-20 -10 0 -18 Q20 -10 40 20" fill="none" stroke="#c99a6b" stroke-width="1.5" opacity="0.4"/>
    <path d="M-20 30 Q0 5 20 30" fill="none" stroke="#c99a6b" stroke-width="1" opacity="0.3"/>
    <ellipse cx="-30" cy="-20" rx="8" ry="5" fill="#d4a017" opacity="0.6"/>
    <ellipse cx="20" cy="-25" rx="6" ry="4" fill="#d4a017" opacity="0.6"/>
    <ellipse cx="0" cy="-30" rx="5" ry="3" fill="#d4a017" opacity="0.5"/>
  </g>
  <text x="300" y="340" text-anchor="middle" fill="rgba(92,58,33,0.4)" font-family="Georgia,serif" font-size="18">Pan Artesanal</text>
</svg>
